<?xml version="1.0" encoding="utf-8"?>
<!-- Generator: Adobe Illustrator 24.2.3, SVG Export Plug-In . SVG Version: 6.00 Build 0)  -->
<svg version="1.1" id="Layer_1" xmlns="http://www.w3.org/2000/svg" xmlns:xlink="http://www.w3.org/1999/xlink" x="0px" y="0px"
	 viewBox="0 0 595.28 151.58" style="enable-background:new 0 0 595.28 151.58;" xml:space="preserve">
<style type="text/css">
	.st0{fill:#10837E;}
	.st1{fill:#59B4E5;}
	.st2{opacity:0.9;fill:#F05F61;}
	.st3{fill:#666666;}
</style>
<path class="st0" d="M66.44,122.84c-5.82,0-10.54-4.72-10.54-10.54V53.83c0-5.82,4.72-10.54,10.54-10.54s10.54,4.72,10.54,10.54
	v58.47C76.98,118.12,72.26,122.84,66.44,122.84z"/>
<path class="st1" d="M111.1,123.37c-5.82,0-10.54-4.72-10.54-10.54V21.17c0-5.82,4.72-10.54,10.54-10.54
	c5.82,0,10.54,4.72,10.54,10.54v91.66C121.63,118.65,116.92,123.37,111.1,123.37z"/>
<path class="st2" d="M20.96,123.63c-5.82,0-10.54-4.72-10.54-10.54V21.43c0-5.82,4.72-10.54,10.54-10.54s10.54,4.72,10.54,10.54
	v91.66C31.49,118.91,26.78,123.63,20.96,123.63z"/>
<path class="st3" d="M160.23,99.87c-0.7,0-1.31-0.24-1.83-0.72c-0.48-0.52-0.72-1.13-0.72-1.83V51.42c0-0.74,0.24-1.35,0.72-1.83
	c0.52-0.48,1.13-0.72,1.83-0.72c1.04,0,1.81,0.44,2.29,1.31l22.01,43.75h-2.22l21.61-43.75c0.52-0.87,1.28-1.31,2.29-1.31
	c0.7,0,1.28,0.24,1.76,0.72c0.48,0.48,0.72,1.09,0.72,1.83v45.91c0,0.7-0.24,1.31-0.72,1.83c-0.48,0.48-1.07,0.72-1.76,0.72
	c-0.74,0-1.37-0.24-1.89-0.72c-0.48-0.52-0.72-1.13-0.72-1.83V58.02l1.11,0.07l-19.26,39.38c-0.48,0.83-1.22,1.24-2.22,1.24
	c-1.09,0-1.87-0.52-2.35-1.57l-19.39-38.79l1.31-0.33v39.31c0,0.7-0.26,1.31-0.78,1.83C161.51,99.63,160.93,99.87,160.23,99.87z
	 M256.97,99.87c-0.74,0-1.35-0.24-1.83-0.72c-0.48-0.48-0.72-1.09-0.72-1.83V51.42c0-0.74,0.24-1.35,0.72-1.83
	c0.48-0.48,1.09-0.72,1.83-0.72h30.63c0.7,0,1.28,0.24,1.76,0.72c0.52,0.44,0.78,1.02,0.78,1.76c0,0.65-0.26,1.22-0.78,1.7
	c-0.48,0.48-1.07,0.72-1.76,0.72h-28.08v18.02h20.44c0.74,0,1.35,0.24,1.83,0.72c0.48,0.48,0.72,1.07,0.72,1.76
	c0,0.7-0.24,1.28-0.72,1.76c-0.48,0.48-1.09,0.72-1.83,0.72h-20.44v18.22h28.08c0.7,0,1.28,0.24,1.76,0.72
	c0.52,0.48,0.78,1.04,0.78,1.7c0,0.74-0.26,1.35-0.78,1.83c-0.48,0.44-1.07,0.65-1.76,0.65H256.97z M334.83,99.87
	c-0.74,0-1.35-0.24-1.83-0.72c-0.48-0.48-0.72-1.09-0.72-1.83V51.42c0-0.74,0.24-1.35,0.72-1.83c0.48-0.48,1.09-0.72,1.83-0.72
	h11.75c3.74,0,7.16,0.63,10.25,1.89c3.13,1.22,5.83,2.98,8.1,5.29c2.26,2.26,4.01,4.94,5.22,8.03c1.26,3.09,1.89,6.51,1.89,10.25
	s-0.63,7.18-1.89,10.32c-1.22,3.09-2.96,5.79-5.22,8.1c-2.26,2.26-4.96,4.03-8.1,5.29c-3.09,1.22-6.51,1.83-10.25,1.83H334.83z
	 M337.38,95.3h9.21c4.01,0,7.53-0.89,10.58-2.68c3.09-1.83,5.51-4.31,7.25-7.44c1.74-3.18,2.61-6.79,2.61-10.84
	c0-4.05-0.87-7.64-2.61-10.77c-1.74-3.18-4.16-5.66-7.25-7.44c-3.05-1.78-6.57-2.68-10.58-2.68h-9.21V95.3z M417.74,99.87
	c-0.74,0-1.35-0.24-1.83-0.72c-0.48-0.48-0.72-1.09-0.72-1.83V51.42c0-0.74,0.24-1.35,0.72-1.83c0.48-0.48,1.09-0.72,1.83-0.72
	s1.35,0.24,1.83,0.72c0.48,0.48,0.72,1.09,0.72,1.83v45.91c0,0.74-0.24,1.35-0.72,1.83C419.09,99.63,418.48,99.87,417.74,99.87z
	 M486.32,100.92c-3.96,0-7.49-0.76-10.58-2.29c-3.05-1.52-5.44-3.64-7.18-6.33c-1.7-2.7-2.55-5.79-2.55-9.27V51.42
	c0-0.74,0.24-1.35,0.72-1.83c0.48-0.48,1.09-0.72,1.83-0.72s1.35,0.24,1.83,0.72c0.48,0.48,0.72,1.09,0.72,1.83v31.61
	c0,2.57,0.63,4.83,1.89,6.79c1.31,1.96,3.11,3.5,5.42,4.64c2.31,1.09,4.94,1.63,7.9,1.63c2.92,0,5.51-0.54,7.77-1.63
	c2.26-1.13,4.03-2.68,5.29-4.64c1.31-1.96,1.96-4.22,1.96-6.79V51.42c0-0.74,0.24-1.35,0.72-1.83c0.48-0.48,1.09-0.72,1.83-0.72
	c0.78,0,1.39,0.24,1.83,0.72c0.48,0.48,0.72,1.09,0.72,1.83v31.61c0,3.48-0.87,6.57-2.61,9.27c-1.7,2.7-4.07,4.81-7.12,6.33
	C493.7,100.16,490.24,100.92,486.32,100.92z M567.84,100.53c-2.79,0-5.38-0.39-7.77-1.18c-2.35-0.83-4.4-1.98-6.14-3.46
	s-3.07-3.2-3.98-5.16c-0.35-0.7-0.37-1.33-0.07-1.89c0.35-0.61,0.91-1.02,1.7-1.24c0.61-0.17,1.2-0.11,1.76,0.2
	c0.61,0.3,1.07,0.76,1.37,1.37c0.65,1.26,1.61,2.39,2.87,3.4c1.26,1,2.76,1.78,4.51,2.35c1.74,0.52,3.66,0.78,5.75,0.78
	c2.31,0,4.35-0.37,6.14-1.11c1.78-0.78,3.18-1.89,4.18-3.33c1.04-1.48,1.57-3.27,1.57-5.35c0-2.66-0.98-4.94-2.94-6.86
	c-1.96-1.92-5.03-3.13-9.21-3.66c-5.09-0.61-9.08-2.18-11.95-4.7c-2.87-2.57-4.31-5.7-4.31-9.4c0-2.66,0.7-4.96,2.09-6.92
	c1.44-1.96,3.4-3.46,5.88-4.51c2.48-1.09,5.33-1.63,8.55-1.63c2.39,0,4.57,0.39,6.53,1.18c1.96,0.74,3.66,1.74,5.09,3
	c1.48,1.22,2.68,2.57,3.59,4.05c0.44,0.7,0.57,1.37,0.39,2.02c-0.13,0.65-0.5,1.15-1.11,1.5c-0.65,0.3-1.33,0.35-2.02,0.13
	c-0.65-0.22-1.15-0.63-1.5-1.24c-0.65-1-1.48-1.94-2.48-2.81c-0.96-0.91-2.13-1.63-3.53-2.15c-1.39-0.52-3.07-0.81-5.03-0.85
	c-3.44,0-6.2,0.74-8.29,2.22c-2.09,1.44-3.13,3.55-3.13,6.33c0,1.48,0.39,2.85,1.18,4.11c0.78,1.22,2.07,2.29,3.85,3.2
	c1.83,0.87,4.27,1.52,7.31,1.96c5.44,0.78,9.47,2.46,12.08,5.03c2.66,2.52,3.98,5.83,3.98,9.93c0,2.35-0.44,4.44-1.31,6.27
	c-0.83,1.83-2.02,3.37-3.59,4.64c-1.52,1.22-3.33,2.15-5.42,2.81C572.39,100.2,570.19,100.53,567.84,100.53z"/>
</svg>
